<svg xmlns="http://www.w3.org/2000/svg" width="980" height="460" viewBox="0 0 980 460">
<rect width="100%" height="100%" fill="#ffffff"/>
<text x="490.0" y="26" text-anchor="middle" font-size="16" font-family="Arial" fill="#111">v4.5.0 same-protocol comparison</text>
<line x1="70" y1="390" x2="940" y2="390" stroke="#333"/>
<rect x="70.0" y="125.4" width="22" height="264.6" fill="#1f77b4"/>
<rect x="96.0" y="75.0" width="22" height="315.0" fill="#2ca02c"/>
<rect x="122.0" y="79.5" width="22" height="310.5" fill="#9467bd"/>
<rect x="148.0" y="158.4" width="22" height="231.6" fill="#d62728"/>
<text x="120.0" y="412" text-anchor="middle" font-size="12" font-family="Arial" fill="#333">v4.5.0</text>
<rect x="188.0" y="122.4" width="22" height="267.6" fill="#1f77b4"/>
<rect x="214.0" y="64.6" width="22" height="325.4" fill="#2ca02c"/>
<rect x="240.0" y="67.0" width="22" height="323.0" fill="#9467bd"/>
<rect x="266.0" y="60.0" width="22" height="330.0" fill="#d62728"/>
<text x="238.0" y="412" text-anchor="middle" font-size="12" font-family="Arial" fill="#333">v4.5.0</text>
<rect x="306.0" y="112.6" width="22" height="277.4" fill="#1f77b4"/>
<rect x="332.0" y="67.9" width="22" height="322.1" fill="#2ca02c"/>
<rect x="358.0" y="76.7" width="22" height="313.3" fill="#9467bd"/>
<rect x="384.0" y="66.2" width="22" height="323.8" fill="#d62728"/>
<text x="356.0" y="412" text-anchor="middle" font-size="12" font-family="Arial" fill="#333">v4.3.4</text>
<rect x="424.0" y="115.0" width="22" height="275.0" fill="#1f77b4"/>
<rect x="450.0" y="80.7" width="22" height="309.3" fill="#2ca02c"/>
<rect x="476.0" y="93.3" width="22" height="296.7" fill="#9467bd"/>
<rect x="502.0" y="194.8" width="22" height="195.2" fill="#d62728"/>
<text x="474.0" y="412" text-anchor="middle" font-size="12" font-family="Arial" fill="#333">v4.3.4</text>
<rect x="542.0" y="113.3" width="22" height="276.7" fill="#1f77b4"/>
<rect x="568.0" y="75.7" width="22" height="314.3" fill="#2ca02c"/>
<rect x="594.0" y="87.3" width="22" height="302.7" fill="#9467bd"/>
<rect x="620.0" y="159.5" width="22" height="230.5" fill="#d62728"/>
<text x="592.0" y="412" text-anchor="middle" font-size="12" font-family="Arial" fill="#333">v4.3.3</text>
<rect x="660.0" y="170.7" width="22" height="219.3" fill="#1f77b4"/>
<rect x="686.0" y="60.0" width="22" height="330.0" fill="#2ca02c"/>
<rect x="712.0" y="69.2" width="22" height="320.8" fill="#9467bd"/>
<rect x="738.0" y="214.9" width="22" height="175.1" fill="#d62728"/>
<text x="710.0" y="412" text-anchor="middle" font-size="12" font-family="Arial" fill="#333">v4.2.0</text>
<rect x="778.0" y="123.7" width="22" height="266.3" fill="#1f77b4"/>
<rect x="804.0" y="90.1" width="22" height="299.9" fill="#2ca02c"/>
<rect x="830.0" y="89.3" width="22" height="300.7" fill="#9467bd"/>
<rect x="856.0" y="244.8" width="22" height="145.2" fill="#d62728"/>
<text x="828.0" y="412" text-anchor="middle" font-size="12" font-family="Arial" fill="#333">v3.1.3</text>
<rect x="896.0" y="147.5" width="22" height="242.5" fill="#1f77b4"/>
<rect x="922.0" y="89.1" width="22" height="300.9" fill="#2ca02c"/>
<rect x="948.0" y="69.6" width="22" height="320.4" fill="#9467bd"/>
<rect x="974.0" y="286.5" width="22" height="103.5" fill="#d62728"/>
<text x="946.0" y="412" text-anchor="middle" font-size="12" font-family="Arial" fill="#333">v2.1.0</text>
<rect x="800" y="52" width="14" height="14" fill="#1f77b4"/>
<text x="820" y="64" font-size="13" font-family="Arial" fill="#333">iou</text>
<rect x="800" y="74" width="14" height="14" fill="#2ca02c"/>
<text x="820" y="86" font-size="13" font-family="Arial" fill="#333">seg_acc</text>
<rect x="800" y="96" width="14" height="14" fill="#9467bd"/>
<text x="820" y="108" font-size="13" font-family="Arial" fill="#333">pd</text>
<rect x="800" y="118" width="14" height="14" fill="#d62728"/>
<text x="820" y="130" font-size="13" font-family="Arial" fill="#333">fa</text>
</svg>
